<?xml version="1.0" encoding="iso-8859-1"?>
<!-- Uploaded to: SVG Repo, www.svgrepo.com, Generator: SVG Repo Mixer Tools -->
<svg fill="#000000" height="800px" width="800px" version="1.1" id="Layer_1" xmlns="http://www.w3.org/2000/svg" xmlns:xlink="http://www.w3.org/1999/xlink" 
	 viewBox="0 0 496 496" xml:space="preserve">
<g>
	<g>
		<g>
			<path d="M354.011,293.021C357.803,286.908,360,279.707,360,272c0-4.028-0.62-7.924-1.755-11.606
				C380.04,234.423,392,201.818,392,168c0-2.433-0.084-4.99-0.261-7.83C401.595,152.878,408,141.174,408,128
				c0-22.056-17.944-40-40-40c-0.143,0-0.283,0.014-0.426,0.016c-19.285-28.829-47.751-49.418-81.014-58.628
				C281.897,12.468,266.382,0,248,0c-18.379,0-33.893,12.464-38.558,29.381c-33.269,9.213-61.729,29.81-81.012,58.635
				C128.286,88.014,128.144,88,128,88c-22.056,0-40,17.944-40,40c0,13.174,6.405,24.878,16.261,32.17
				C104.084,163.01,104,165.567,104,168c0,33.818,11.96,66.423,33.755,92.394C136.62,264.076,136,267.972,136,272
				c0,7.707,2.197,14.908,5.989,21.021L77.04,496h29.088l51.704-29.544L180,496h26.176L248,335.697L289.824,496H316l22.168-29.544
				L389.872,496h29.088L354.011,293.021z M376,168c0,28.042-9.261,55.161-26.258,77.421c-5.755-6.41-13.533-10.986-22.302-12.661
				l-6.832-38.056l30.48-30.48C356.368,166.712,362.112,168,368,168c2.735,0,5.406-0.277,7.988-0.803
				C375.99,167.465,376,167.732,376,168z M287.49,46.354c25.381,8.19,47.327,23.997,63.249,45.536
				c-8.498,4.053-15.379,11.042-19.267,19.886l-38.104-6.928l-17.912-35.816C281.871,62.985,286.094,55.037,287.49,46.354z
				 M208.51,46.352c1.395,8.684,5.619,16.633,12.034,22.68l-17.912,35.816l-38.104,6.928c-3.888-8.845-10.77-15.834-19.268-19.887
				C161.177,70.354,183.125,54.551,208.51,46.352z M128,104c11.24,0,20.84,7.672,23.344,18.664l1.704,7.464l60.32-10.968
				l27.584-55.168l-5.984-3.888C228.096,55.632,224,48.12,224,40c0-13.232,10.768-24,24-24s24,10.768,24,24
				c0,8.12-4.096,15.632-10.968,20.104l-5.984,3.888l27.584,55.168l60.32,10.968l1.704-7.464C347.16,111.672,356.76,104,368,104
				c13.232,0,24,10.768,24,24s-10.768,24-24,24c-4.888,0-9.616-1.496-13.664-4.32l-5.496-3.832l-45.448,45.448l10.528,58.632
				l6.552,0.136C333.448,248.32,344,259.056,344,272c0,13.232-10.768,24-24,24s-24-10.768-24-24c0-2.64,0.504-5.32,1.56-8.184
				l2.44-6.704l-52-26.056l-52,26.056l2.448,6.704C199.496,266.68,200,269.36,200,272c0,13.232-10.768,24-24,24s-24-10.768-24-24
				c0-12.944,10.552-23.68,23.528-23.936l6.552-0.136l10.528-58.632l-45.448-45.448l-5.496,3.832
				c-4.048,2.824-8.776,4.32-13.664,4.32c-13.232,0-24-10.768-24-24S114.768,104,128,104z M211.414,290.566
				C214.337,285.013,216,278.699,216,272c0-2.208-0.208-4.456-0.616-6.704L248,248.944l32.616,16.352
				C280.208,267.544,280,269.792,280,272c0,6.699,1.663,13.013,4.586,18.566C260.653,297.76,235.347,297.76,211.414,290.566z
				 M120,168c0-0.268,0.01-0.535,0.012-0.803c2.582,0.525,5.253,0.803,7.988,0.803c5.888,0,11.632-1.288,16.904-3.776l30.48,30.48
				l-6.832,38.056c-8.766,1.675-16.541,6.251-22.295,12.66C129.261,223.16,120,196.042,120,168z M193.824,480H188l-19.175-25.577
				l38.869-132.143l-15.35-4.515l-39.083,132.87L101.872,480H98.96l55.738-174.169C160.871,309.732,168.174,312,176,312
				c9.126,0,17.543-3.079,24.281-8.243c12.2,4.308,24.744,6.949,37.46,7.87L193.824,480z M342.792,450.664l-39.098-132.922
				l-15.35,4.515l38.863,132.124L308,480h-5.824l-43.917-168.374c12.716-0.921,25.259-3.561,37.46-7.87
				C302.457,308.921,310.874,312,320,312c7.826,0,15.129-2.268,21.302-6.169L397.04,480h-2.912L342.792,450.664z"/>
			<path d="M248,200c17.648,0,32-14.352,32-32s-14.352-32-32-32s-32,14.352-32,32S230.352,200,248,200z M248,152
				c8.824,0,16,7.176,16,16c0,8.824-7.176,16-16,16c-8.824,0-16-7.176-16-16C232,159.176,239.176,152,248,152z"/>
		</g>
	</g>
</g>
</svg>